<svg width="79" height="79" viewBox="0 0 79 79" fill="none" xmlns="http://www.w3.org/2000/svg">
<g clip-path="url(#clip0_121_75)">
<path d="M79 0H0V79H79V0Z" fill="#A7F175"/>
<path d="M37.1656 54.6348C33.7379 54.6348 31.5575 52.5555 31.5575 49.9182C31.5575 38.6321 61.2365 36.3727 61.2365 24.387C61.2365 17.0753 52.7667 13.9238 41.9549 13.9238C35.3782 13.9238 27.942 15.1411 21.0357 17.3192V31.6175C31.2132 24.2047 42.5211 21.0315 49.8049 21.0315C54.3849 21.0315 57.4926 22.3094 57.4926 24.599C57.4926 34.0323 16.5597 32.5375 16.5597 52.9212C16.5597 60.7343 21.9321 65.2106 29.4904 65.2106C40.923 65.2106 49.5705 54.1003 56.04 40.557L57.3507 41.0277C53.9435 49.304 46.8928 58.3788 45.5195 64.2123H60.2382V34.0326H56.8389C51.9047 44.7549 44.6738 54.6348 37.1656 54.6348Z" fill="black"/>
</g>
<defs>
<clipPath id="clip0_121_75">
<rect width="79" height="79" rx="16" fill="white"/>
</clipPath>
</defs>
</svg>
