<svg width="64" height="53" viewBox="0 0 64 53" fill="none" xmlns="http://www.w3.org/2000/svg">
<rect width="64" height="53" rx="20" fill="#262626"/>
<path d="M21 20.0625C21 18.9851 21.428 17.9517 22.1899 17.1899C22.9517 16.428 23.9851 16 25.0625 16H39.4375C40.5149 16 41.5483 16.428 42.3101 17.1899C43.072 17.9517 43.5 18.9851 43.5 20.0625V34.4375C43.5 35.5149 43.072 36.5483 42.3101 37.3101C41.5483 38.072 40.5149 38.5 39.4375 38.5H25.0625C23.9851 38.5 22.9517 38.072 22.1899 37.3101C21.428 36.5483 21 35.5149 21 34.4375V20.0625ZM25.0625 17.875C24.4823 17.875 23.9259 18.1055 23.5157 18.5157C23.1055 18.9259 22.875 19.4823 22.875 20.0625V20.375H41.625V20.0625C41.625 19.4823 41.3945 18.9259 40.9843 18.5157C40.5741 18.1055 40.0177 17.875 39.4375 17.875H25.0625ZM22.875 34.4375C22.875 35.645 23.855 36.625 25.0625 36.625H39.4375C40.0177 36.625 40.5741 36.3945 40.9843 35.9843C41.3945 35.5741 41.625 35.0177 41.625 34.4375V22.25H22.875V34.4375ZM25.8125 24.125H29.9375C30.525 24.125 31 24.6 31 25.1875V33.6875C31 34.275 30.525 34.75 29.9375 34.75H25.8125C25.5307 34.75 25.2605 34.6381 25.0612 34.4388C24.8619 34.2395 24.75 33.9693 24.75 33.6875V25.1875C24.75 24.6 25.225 24.125 25.8125 24.125ZM26.625 32.875H29.125V26H26.625V32.875ZM32.25 25.0625C32.25 24.8139 32.3488 24.5754 32.5246 24.3996C32.7004 24.2238 32.9389 24.125 33.1875 24.125H38.8125C39.0611 24.125 39.2996 24.2238 39.4754 24.3996C39.6512 24.5754 39.75 24.8139 39.75 25.0625C39.75 25.3111 39.6512 25.5496 39.4754 25.7254C39.2996 25.9012 39.0611 26 38.8125 26H33.1875C32.9389 26 32.7004 25.9012 32.5246 25.7254C32.3488 25.5496 32.25 25.3111 32.25 25.0625ZM33.1875 27.875C32.9389 27.875 32.7004 27.9738 32.5246 28.1496C32.3488 28.3254 32.25 28.5639 32.25 28.8125C32.25 29.0611 32.3488 29.2996 32.5246 29.4754C32.7004 29.6512 32.9389 29.75 33.1875 29.75H37.5625C37.8111 29.75 38.0496 29.6512 38.2254 29.4754C38.4012 29.2996 38.5 29.0611 38.5 28.8125C38.5 28.5639 38.4012 28.3254 38.2254 28.1496C38.0496 27.9738 37.8111 27.875 37.5625 27.875H33.1875Z" fill="#9FC131"/>
</svg>
