<svg width="60" height="60" viewBox="0 0 60 60" fill="none" xmlns="http://www.w3.org/2000/svg">
<rect width="60" height="60" rx="30" fill="#1F1F1F"/>
<g clip-path="url(#clip0_284_33)">
<path d="M33 22V27H38" stroke="#9FC131" stroke-width="2" stroke-linecap="round" stroke-linejoin="round"/>
<path d="M33 27L39 21" stroke="#9FC131" stroke-width="2" stroke-linecap="round" stroke-linejoin="round"/>
<path d="M33.5488 33.1675C33.6872 33.0753 33.8465 33.0192 34.0122 33.0041C34.1779 32.989 34.3447 33.0156 34.4975 33.0812L40.3925 35.7225C40.5912 35.8074 40.757 35.9543 40.8651 36.1414C40.9733 36.3284 41.018 36.5454 40.9925 36.76C40.7983 38.2113 40.0836 39.5427 38.9813 40.5065C37.8791 41.4704 36.4642 42.0011 35 42C30.4913 42 26.1673 40.2089 22.9792 37.0208C19.7911 33.8327 18 29.5087 18 25C17.9989 23.5357 18.5296 22.1209 19.4935 21.0186C20.4573 19.9164 21.7887 19.2017 23.24 19.0075C23.4545 18.982 23.6716 19.0267 23.8586 19.1348C24.0456 19.243 24.1926 19.4088 24.2775 19.6075L26.9188 25.5075C26.9836 25.659 27.0101 25.8242 26.9957 25.9885C26.9813 26.1527 26.9265 26.3108 26.8363 26.4487L24.165 29.625C24.0702 29.768 24.0142 29.9331 24.0024 30.1042C23.9906 30.2753 24.0233 30.4466 24.0975 30.6012C25.1313 32.7175 27.3188 34.8787 29.4413 35.9025C29.5967 35.9763 29.7688 36.0084 29.9404 35.9954C30.112 35.9825 30.2773 35.925 30.42 35.8287L33.5488 33.1675Z" stroke="#9FC131" stroke-width="2" stroke-linecap="round" stroke-linejoin="round"/>
</g>
<defs>
<clipPath id="clip0_284_33">
<rect width="32" height="32" fill="white" transform="translate(14 14)"/>
</clipPath>
</defs>
</svg>
