<svg width="74" height="74" viewBox="0 0 74 74" fill="none" xmlns="http://www.w3.org/2000/svg">
<g clip-path="url(#clip0_120_66)">
<path d="M0 0H62.16C65.3002 0 68.3117 1.24742 70.5321 3.46786C72.7526 5.68829 74 8.69984 74 11.84V62.16C74 65.3002 72.7526 68.3117 70.5321 70.5321C68.3117 72.7526 65.3002 74 62.16 74H11.84C8.69984 74 5.68829 72.7526 3.46786 70.5321C1.24742 68.3117 0 65.3002 0 62.16L0 0Z" fill="#663399"/>
<path d="M26.4994 68.08C21.7464 68.0755 18.8138 65.3989 18.87 60.4735V48.0126C18.87 45.5159 19.6011 43.617 21.0634 42.3176C23.6896 39.7875 29.7828 39.6336 32.355 42.3561C33.9401 43.7539 34.538 46.6096 34.3959 49.2743H28.9407C28.9821 48.2272 28.9266 46.6414 28.3109 46.0442C27.511 44.9616 25.3983 45.0889 24.8396 46.2159C24.4962 46.8272 24.3245 47.7322 24.3245 48.9295V59.7468C24.3245 62.0149 25.1126 63.1619 26.6896 63.1871C27.4266 63.1871 27.9868 62.9192 28.3679 62.3842C28.9 61.7493 28.9828 60.3433 28.9399 59.3265H34.3952C34.7682 64.5117 31.7075 68.1443 26.4987 68.08H26.4994ZM43.8184 68.08C38.5518 68.1525 36.1956 64.4051 36.3414 59.3265H41.4911C41.3482 61.5406 42.109 63.5571 43.9323 63.4165C44.7456 63.4165 45.3183 63.1619 45.6491 62.6521C46.2781 61.7204 46.3958 59.0298 45.4967 57.9886C44.8684 56.9859 42.6085 56.1008 41.4148 55.5044C39.7106 54.6889 38.4837 53.721 37.7333 52.5992C36.041 50.1098 36.1978 44.6456 38.5725 42.4316C40.8798 39.6995 46.9056 39.5737 49.2152 42.3746C50.6397 43.8183 51.262 46.6592 51.1414 49.2736H46.1819C46.2241 48.1991 46.1227 46.4653 45.7054 45.8333C45.4131 45.2983 44.8595 45.0304 44.0463 45.0304C42.5966 45.0304 41.8722 45.897 41.8722 47.6293C41.8877 49.469 42.6048 50.2238 44.2757 50.9926C46.4394 51.8333 49.1908 53.2689 50.1883 55.0064C53.1631 60.3003 51.1222 68.3871 43.8176 68.0785L43.8184 68.08ZM60.4506 68.08C55.184 68.1525 52.8279 64.4051 52.9736 59.3265H58.1233C57.9805 61.5406 58.7412 63.5571 60.5646 63.4165C61.3778 63.4165 61.9506 63.1619 62.2814 62.6521C62.9104 61.7204 63.028 59.0298 62.1289 57.9886C61.5007 56.9859 59.2407 56.1008 58.0471 55.5044C56.3429 54.6889 55.1159 53.721 54.3656 52.5992C52.6732 50.1098 52.8301 44.6456 55.2047 42.4316C57.5121 39.6995 63.5379 39.5737 65.8474 42.3746C67.2719 43.8183 67.8943 46.6592 67.7736 49.2736H62.8142C62.8563 48.1991 62.755 46.4653 62.3376 45.8333C62.0453 45.2983 61.4918 45.0304 60.6785 45.0304C59.2289 45.0304 58.5044 45.897 58.5044 47.6293C58.5199 49.469 59.237 50.2238 60.9079 50.9926C63.0717 51.8333 65.823 53.2689 66.8205 55.0064C69.7953 60.3003 67.7544 68.3871 60.4499 68.0785L60.4506 68.08Z" fill="white"/>
</g>
<defs>
<clipPath id="clip0_120_66">
<rect width="74" height="74" fill="white"/>
</clipPath>
</defs>
</svg>
