<svg width="65" height="53" viewBox="0 0 65 53" fill="none" xmlns="http://www.w3.org/2000/svg">
<rect width="65" height="53" rx="20" fill="#262626"/>
<path d="M20.7188 34.2188C20.4722 34.2188 20.2591 34.3145 20.0791 34.5059C19.8991 34.6972 19.8086 34.9238 19.8086 35.1855V38.0742H19.8125V38.0781H21.625V38.0742H21.6289V35.1855C21.6289 34.9238 21.5384 34.6972 21.3584 34.5059C21.1784 34.3145 20.9653 34.2188 20.7188 34.2188ZM26.209 26.0654C25.8975 26.6473 25.6615 27.2593 25.501 27.9014C25.3404 28.5436 25.2555 29.2063 25.2461 29.8887V30.25H25.2412L25.248 30.2539L32.498 34.1055L32.4971 34.1084L32.502 34.1055L39.752 30.2539L39.7539 30.2578V30.25C39.7539 29.4774 39.6827 28.76 39.541 28.0977C39.3993 27.4353 39.1498 26.7577 38.791 26.0654L38.7871 26.0674L38.4473 26.2432L32.5 29.4023L26.2148 26.0635L26.7783 25.0039L26.209 26.0654ZM32.498 16.1484L22.0479 21.7002L22.0498 21.7041L22.0518 21.709L32.498 27.2588L32.5 27.2559L32.4971 27.2617L32.502 27.2588L42.9521 21.707L42.9502 21.7041L42.9482 21.7002L42.9473 21.6973L32.502 16.1484L32.5 16.1514L32.5029 16.1455L32.498 16.1484ZM19.8145 22.6631L18.0078 21.7031L32.5 14.0049L46.9912 21.7031L40.3994 25.2061L40.4014 25.21C40.4446 25.2906 40.4866 25.3717 40.5273 25.4531L40.3975 25.2109C40.7844 25.9329 41.073 26.6857 41.2617 27.4678C41.4504 28.2497 41.5491 29.0567 41.5586 29.8887V31.4365L32.5 36.2627L23.4414 31.4365C23.4414 30.8356 23.4457 30.2748 23.4551 29.7539C23.4645 29.2325 23.5075 28.7257 23.583 28.2344C23.6585 27.7431 23.7719 27.252 23.9229 26.7607C24.0738 26.2695 24.2996 25.7524 24.6016 25.2109L24.5986 25.21L24.5957 25.208H24.5947L24.4307 25.1162L24.6006 25.2061L21.627 23.626L21.625 23.6299L21.6211 23.6367V32.4619H21.6133L21.624 32.4658C21.897 32.5659 22.1419 32.7058 22.3584 32.8857C22.5752 33.0661 22.7687 33.2771 22.9385 33.5176C23.1081 33.7579 23.2312 34.0184 23.3066 34.2988C23.382 34.5793 23.4242 34.875 23.4336 35.1855V39.9961H18.0039V35.1855C18.0039 34.885 18.046 34.594 18.1309 34.3135C18.2157 34.0331 18.3388 33.768 18.499 33.5176C18.6593 33.2671 18.8477 33.056 19.0645 32.8857C19.2811 32.7157 19.5309 32.576 19.8135 32.4658L19.8164 32.4717V22.667H19.8213L19.8145 22.6631Z" fill="#9FC131" stroke="#9FC131" stroke-width="0.0078125"/>
</svg>
