<svg width="65" height="26" viewBox="0 0 65 26" fill="none" xmlns="http://www.w3.org/2000/svg">
<path d="M15.6391 5.2H18.2456V7.8H15.6391V5.2ZM13.0326 5.2H15.6391V7.8H13.0326V5.2ZM13.0326 2.6L17.1053 1.35417L15.6391 5.2H13.0326V2.6ZM17.1053 1.35417L18.2456 2.6V5.2H15.6391L17.1053 1.35417ZM13.0326 0H15.6391L17.1053 1.35417L13.0326 2.6V0ZM10.4261 0H13.0326V2.6H10.4261V0ZM10.4261 2.6H13.0326V5.2H10.4261V2.6ZM7.81955 2.6H10.4261V5.2H7.81955V2.6ZM5.21303 2.6H7.81955V5.2H5.21303V2.6ZM5.21303 0H7.81955V2.6H5.21303V0ZM2.60652 0H5.21303V2.6L1.52047 0.974999L2.60652 0ZM7.81955 0H10.4261V2.6H7.81955V0ZM1.52047 0.974999L5.21303 2.6V5.2H2.60652L1.52047 0.974999ZM0 2.6L1.52047 0.974999L2.60652 5.2H0V2.6ZM0 5.2H2.60652V7.8H0V5.2ZM2.60652 5.2H5.21303V7.8H2.60652V5.2ZM2.60652 7.8H5.21303V10.4H2.60652V7.8ZM2.60652 10.4H5.21303V13L1.14035 14.2458L2.60652 10.4ZM0 10.4H2.60652L1.14035 14.2458L0 13V10.4ZM0 7.8H2.60652V10.4H0V7.8ZM1.14035 14.2458L5.21303 13V15.6H2.60652L1.14035 14.2458ZM5.21303 13H7.81955V15.6H5.21303V13ZM5.21303 10.4H7.81955V13H5.21303V10.4ZM7.81955 10.4H10.4261V13H7.81955V10.4ZM10.4261 10.4H13.0326V13H10.4261V10.4ZM13.0326 10.4H15.6391L17.1053 11.9708L13.0326 13V10.4ZM13.0326 13L17.1053 11.9708L15.6391 15.6H13.0326V13ZM10.4261 13H13.0326V15.6H10.4261V13ZM7.81955 13H10.4261V15.6H7.81955V13ZM17.1053 11.9708L18.2456 13V15.6H15.6391L17.1053 11.9708ZM15.6391 15.6H18.2456V18.2H15.6391V15.6ZM13.0326 15.6H15.6391V18.2H13.0326V15.6ZM10.4261 20.8H13.0326V23.4H10.4261V20.8ZM13.0326 20.8H15.6391L16.7251 24.8625L13.0326 23.4V20.8ZM13.0326 18.2H15.6391V20.8H13.0326V18.2ZM15.6391 18.2H18.2456V20.8H15.6391V18.2ZM15.6391 20.8H18.2456V23.4L16.7251 24.8625L15.6391 20.8ZM13.0326 23.4L16.7251 24.8625L15.6391 26H13.0326V23.4ZM10.4261 23.4H13.0326V26H10.4261V23.4ZM7.81955 23.4H10.4261V26H7.81955V23.4ZM5.21303 23.4H7.81955V26H5.21303V23.4ZM1.52047 24.8625L5.21303 23.4V26H2.60652L1.52047 24.8625ZM2.60652 20.8H5.21303V23.4L1.52047 24.8625L2.60652 20.8ZM5.21303 20.8H7.81955V23.4H5.21303V20.8ZM7.81955 20.8H10.4261V23.4H7.81955V20.8ZM0 20.8H2.60652L1.52047 24.8625L0 23.4V20.8ZM0 18.2H2.60652V20.8H0V18.2ZM2.60652 18.2H5.21303V20.8H2.60652V18.2Z" fill="#9FC131"/>
<path d="M20.8589 0H23.4654V2.6H20.8589V0ZM23.4654 0H26.072V2.6H23.4654V0ZM26.072 0H28.6785V2.6H26.072V0ZM28.6785 0H31.285V2.6H28.6785V0ZM31.285 0H33.8915V2.6H31.285V0ZM33.8915 0H36.4267L37.9404 1.35417L33.8915 2.6V0ZM33.8915 2.6L37.9404 1.35417L36.498 5.2H33.8915V2.6ZM31.285 2.6H33.8915V5.2H31.285V2.6ZM28.6785 2.6H31.285V5.2H28.6785V2.6ZM26.072 2.6H28.6785V5.2H26.072V2.6ZM23.4654 2.6H26.072V5.2H23.4654V2.6ZM20.8589 2.6H23.4654V5.2H20.8589V2.6ZM37.9404 1.35417L39.1045 2.6V5.2H36.498L37.9404 1.35417ZM33.8915 5.2H36.498V7.8H33.8915V5.2ZM36.498 5.2H39.1045V7.8H36.498V5.2ZM36.498 7.8H39.1045V10.4H36.498V7.8ZM36.498 10.4H39.1045V13H36.498V10.4ZM33.8915 10.4H36.498V13H33.8915V10.4ZM33.8915 7.8H36.498V10.4H33.8915V7.8ZM33.8915 13H36.498L38.0117 16.9L33.8915 15.6V13ZM33.8915 15.6L38.0117 16.9L36.498 18.2H33.8915V15.6ZM31.285 15.6H33.8915V18.2H31.285V15.6ZM31.285 13H33.8915V15.6H31.285V13ZM28.6785 13H31.285V15.6H28.6785V13ZM28.6785 15.6H31.285V18.2H28.6785V15.6ZM26.072 15.6H28.6785V18.2H26.072V15.6ZM26.072 13H28.6785V15.6H26.072V13ZM23.4654 13H26.072V15.6H23.4654V13ZM20.8589 13H23.4654V15.6H20.8589V13ZM20.8589 15.6H23.4654V18.2H20.8589V15.6ZM23.4654 15.6H26.072V18.2H23.4654V15.6ZM20.8589 5.2H23.4654V7.8H20.8589V5.2ZM23.4654 5.2H26.072V7.8H23.4654V5.2ZM23.4654 7.8H26.072V10.4H23.4654V7.8ZM23.4654 10.4H26.072V13H23.4654V10.4ZM20.8589 7.8H23.4654V10.4H20.8589V7.8ZM20.8589 10.4H23.4654V13H20.8589V10.4ZM20.8589 18.2H23.4654V20.8H20.8589V18.2ZM23.4654 18.2H26.072V20.8H23.4654V18.2ZM23.4654 20.8H26.072V23.4H23.4654V20.8ZM23.4654 23.4H26.072V26H23.4654V23.4ZM20.8589 23.4H23.4654V26H20.8589V23.4ZM20.8589 20.8H23.4654V23.4H20.8589V20.8ZM36.498 13H39.1045V15.6L38.0117 16.9L36.498 13Z" fill="#9FC131"/>
<path d="M41.5414 23.4H44.1479V26H41.5414V23.4ZM41.5414 20.8H44.1479V23.4H41.5414V20.8ZM41.5414 18.2H44.1479V20.8H41.5414V18.2ZM41.5414 15.6H44.1479V18.2H41.5414V15.6ZM41.5414 13H44.1479V15.6H41.5414V13ZM41.5414 10.4H44.1479V13H41.5414V10.4ZM44.1479 10.4L46.7544 6.6625V13H44.1479V10.4ZM44.1479 7.8L46.7544 6.6625L44.1479 10.4V7.8ZM44.1479 5.2L48.7636 3.25L46.7544 6.6625L44.1479 7.8V5.2ZM44.1479 2.6L46.7544 0L48.7636 3.25L44.1479 5.2V2.6ZM41.5414 2.6H44.1479V5.2H41.5414V2.6ZM41.5414 0H44.1479V2.6H41.5414V0ZM41.5414 5.2H44.1479V7.8H41.5414V5.2ZM41.5414 7.8H44.1479V10.4H41.5414V7.8ZM44.1479 0H46.7544L44.1479 2.6V0ZM44.1479 13H46.7544V15.6H44.1479V13ZM44.1479 15.6H46.7544V18.2H44.1479V15.6ZM44.1479 18.2H46.7544V20.8H44.1479V18.2ZM44.1479 20.8H46.7544V23.4H44.1479V20.8ZM44.1479 23.4H46.7544V26H44.1479V23.4ZM46.7544 6.6625L48.7636 3.25L49.1437 10.4L46.7544 6.6625ZM48.7636 3.25L51.8045 7.8L51.4244 13.2708L49.1437 10.4L48.7636 3.25ZM55.2256 7.42083L58.2975 2.6L56.746 11.2125L55.6057 13L55.2256 7.42083ZM58.2975 2.6L59.787 6.6625L56.746 11.2125L58.2975 2.6ZM59.787 0H62.3935V2.6L59.787 0ZM59.787 0L62.3935 2.6V5.2L58.2975 2.6L59.787 0ZM58.2975 2.6L62.3935 5.2V7.8L59.787 6.6625L58.2975 2.6ZM59.787 6.6625L62.3935 7.8V10.4L59.787 6.6625ZM59.787 6.6625L62.3935 10.4V13H59.787V6.6625ZM59.787 13H62.3935V15.6H59.787V13ZM59.787 15.6H62.3935V18.2H59.787V15.6ZM59.787 18.2H62.3935V20.8H59.787V18.2ZM59.787 20.8H62.3935V23.4H59.787V20.8ZM59.787 23.4H62.3935V26H59.787V23.4ZM62.3935 23.4H65V26H62.3935V23.4ZM62.3935 20.8H65V23.4H62.3935V20.8ZM62.3935 18.2H65V20.8H62.3935V18.2ZM62.3935 15.6H65V18.2H62.3935V15.6ZM62.3935 13H65V15.6H62.3935V13ZM62.3935 10.4H65V13H62.3935V10.4ZM62.3935 7.8H65V10.4H62.3935V7.8ZM62.3935 5.2H65V7.8H62.3935V5.2ZM62.3935 2.6H65V5.2H62.3935V2.6ZM62.3935 0H65V2.6H62.3935V0ZM51.8045 7.8L53.325 10.075L55.2256 7.42083L55.6057 13L53.3487 15.925L51.4244 13.2708L51.8045 7.8Z" fill="#9FC131"/>
</svg>
