<svg width="64" height="53" viewBox="0 0 64 53" fill="none" xmlns="http://www.w3.org/2000/svg">
<rect width="64" height="53" rx="20" fill="#262626"/>
<path d="M24.5749 14.7999C24.5749 14.6534 24.5328 14.5096 24.4532 14.3844C24.3737 14.2592 24.2597 14.1573 24.1237 14.0898C23.9878 14.0224 23.8351 13.9919 23.6823 14.0018C23.5295 14.0117 23.3824 14.0616 23.2572 14.146C21.4257 15.3802 20.3399 16.4575 19.7246 17.4986C19.0948 18.5652 19.0011 19.522 19.0011 20.3999C19.0011 21.6052 19.5975 22.6762 20.5228 23.3588C20.1247 23.7164 19.8095 24.1499 19.5975 24.6314C19.0925 25.7354 19 27.0879 19 28.1727C19 29.9466 19.2954 32.6634 19.8361 34.9471C20.1058 36.0852 20.447 37.1636 20.8672 37.9764C21.0768 38.3807 21.3276 38.7615 21.6342 39.0516C21.943 39.345 22.3699 39.5999 22.905 39.5999C23.4401 39.5999 23.8659 39.345 24.1758 39.0516C24.4812 38.7615 24.7321 38.3796 24.9405 37.9754C25.3608 37.1636 24.1446 39.3236 25.9694 34.946C27.7943 30.5684 26.8033 29.9466 26.8033 28.1727C26.8033 27.0879 26.713 25.7364 26.2091 24.6314C25.9973 24.1495 25.6821 23.7156 25.2839 23.3578C25.757 23.009 26.1402 22.5609 26.4038 22.0481C26.6674 21.5353 26.8045 20.9714 26.8044 20.3999C26.8044 19.1988 26.189 18.3658 25.6952 17.697L25.5414 17.4868C25.0241 16.7722 24.5749 16.0479 24.5749 14.7999ZM22.8738 24.1332H22.934C23.4345 24.1386 23.7756 24.2634 24.0253 24.4362C24.2877 24.6161 24.5047 24.8948 24.6763 25.2724C25.033 26.0543 25.1311 27.122 25.1311 28.1738C25.1311 29.8239 24.8525 32.4212 24.3397 34.5951C24.081 35.6852 23.7756 36.6218 23.4423 37.266C23.2751 37.5903 23.1212 37.7994 22.9975 37.9156C22.9696 37.9437 22.9386 37.9687 22.905 37.9903C22.871 37.9688 22.8396 37.9437 22.8113 37.9156C22.6876 37.7983 22.5338 37.5903 22.3654 37.265C22.031 36.6207 21.7256 35.6842 21.467 34.594C20.953 32.4212 20.6721 29.8239 20.6721 28.1727C20.6721 27.1231 20.7713 26.0554 21.1292 25.2735C21.3016 24.8966 21.5193 24.6179 21.7824 24.4372C22.0321 24.2634 22.3744 24.1386 22.8738 24.1332ZM22.9329 22.5332H22.8749C22.2882 22.5265 21.728 22.2988 21.3157 21.8994C20.9033 21.5001 20.6721 20.9613 20.6721 20.3999C20.6721 19.6575 20.749 19.0143 21.1793 18.2868C21.5138 17.7194 22.0868 17.0623 23.0856 16.2751C23.3252 17.1775 23.7611 17.8378 24.1647 18.3978L24.2984 18.5802C24.8235 19.3034 25.1311 19.7279 25.1311 20.3999C25.1312 20.9607 24.9004 21.4991 24.4888 21.8983C24.0772 22.2976 23.5189 22.5257 22.9329 22.5332ZM30.7049 16.6666C29.3561 16.6666 28.1009 17.0484 27.0496 17.7055C26.8913 17.4623 26.7342 17.2532 26.6026 17.0762L26.4577 16.8799C26.3374 16.7169 26.224 16.5493 26.1177 16.3775C27.3391 15.6106 28.7491 15.1634 30.2074 15.0802C31.6656 14.9971 33.1212 15.2811 34.4291 15.9038C35.7369 16.5265 36.8515 17.4662 37.6616 18.6294C38.4718 19.7925 38.9493 21.1385 39.0466 22.5332H41.5738C42.6823 22.5332 43.7454 22.9545 44.5293 23.7044C45.3132 24.4544 45.7538 25.4715 45.7541 26.5322V33.4655C45.7542 33.9909 45.6462 34.5111 45.4362 34.9966C45.2262 35.482 44.9183 35.9231 44.5301 36.2946C44.1419 36.6662 43.681 36.9609 43.1738 37.162C42.6665 37.3631 42.1228 37.4666 41.5738 37.4666H34.3279C33.2192 37.4666 32.1559 37.0451 31.3719 36.295C30.588 35.5449 30.1475 34.5274 30.1475 33.4666V31.0495C29.343 30.9986 28.5504 30.8365 27.7943 30.5684C27.85 29.9711 27.8868 29.4015 27.9058 28.881C28.5969 29.186 29.3527 29.3823 30.1475 29.4452V26.5332C30.1475 25.4724 30.588 24.455 31.3719 23.7048C32.1559 22.9547 33.2192 22.5332 34.3279 22.5332H37.3711C37.2313 20.9336 36.4684 19.4426 35.2337 18.356C33.9989 17.2693 32.3825 16.6663 30.7049 16.6666ZM38.992 24.1332C38.7471 25.871 37.9127 27.4837 36.6169 28.7236C35.3212 29.9634 33.6357 30.7619 31.8197 30.9962V33.4666C31.8197 34.1031 32.0839 34.7135 32.5543 35.1636C33.0247 35.6137 33.6627 35.8666 34.3279 35.8666H41.5738C42.239 35.8666 42.877 35.6137 43.3473 35.1636C43.8177 34.7135 44.082 34.1031 44.082 33.4666V26.5332C44.082 25.8967 43.8177 25.2863 43.3473 24.8362C42.877 24.3861 42.239 24.1332 41.5738 24.1332H38.992ZM37.3009 24.1332H34.3279C33.6627 24.1332 33.0247 24.3861 32.5543 24.8362C32.0839 25.2863 31.8197 25.8967 31.8197 26.5332V29.378C33.189 29.1559 34.4523 28.5318 35.4344 27.592C36.4165 26.6523 37.0688 25.4435 37.3009 24.1332Z" fill="#9FC131"/>
</svg>
