<svg width="84" height="80" viewBox="0 0 84 80" fill="none" xmlns="http://www.w3.org/2000/svg">
<rect width="84" height="80" rx="15" fill="#292929"/>
<g clip-path="url(#clip0_121_92)">
<path d="M39.4894 21.7813C38.3321 19.9702 36.7374 18.4798 34.8522 17.4476C32.9671 16.4153 30.8524 15.8745 28.7031 15.875C27.7471 17.5279 27.1737 19.374 27.0251 21.2777C26.8764 23.1814 27.1564 25.0941 27.8443 26.8754C26.4975 28.8586 25.7687 31.1965 25.75 33.5938V35.5625C25.75 38.6954 26.9945 41.6999 29.2098 43.9152C31.4251 46.1305 34.4296 47.375 37.5625 47.375H49.375C52.5079 47.375 55.5124 46.1305 57.7277 43.9152C59.943 41.6999 61.1875 38.6954 61.1875 35.5625V33.5938C61.1688 31.1965 60.44 28.8586 59.0932 26.8754C59.7811 25.0941 60.0611 23.1814 59.9124 21.2777C59.7638 19.374 59.1904 17.5279 58.2344 15.875C56.0851 15.8745 53.9704 16.4153 52.0853 17.4476C50.2001 18.4798 48.6054 19.9702 47.4481 21.7813H39.4894Z" stroke="#F2F2F2" stroke-width="2" stroke-linecap="round" stroke-linejoin="round"/>
<path d="M35.5938 65.0938V55.25C35.5938 53.1614 36.4234 51.1584 37.9003 49.6815C39.3771 48.2047 41.3802 47.375 43.4688 47.375C45.5573 47.375 47.5604 48.2047 49.0372 49.6815C50.5141 51.1584 51.3438 53.1614 51.3438 55.25V65.0938" stroke="#F2F2F2" stroke-width="2" stroke-linecap="round" stroke-linejoin="round"/>
<path d="M35.5938 59.1875H27.7188C25.6302 59.1875 23.6271 58.3578 22.1503 56.881C20.6734 55.4041 19.8438 53.4011 19.8438 51.3125C19.8438 49.2239 19.0141 47.2209 17.5372 45.744C16.0604 44.2672 14.0573 43.4375 11.9688 43.4375" stroke="#F2F2F2" stroke-width="2" stroke-linecap="round" stroke-linejoin="round"/>
</g>
<defs>
<clipPath id="clip0_121_92">
<rect width="63" height="63" fill="white" transform="translate(10 8)"/>
</clipPath>
</defs>
</svg>
