<svg width="39" height="39" viewBox="0 0 39 39" fill="none" xmlns="http://www.w3.org/2000/svg">
<rect width="39" height="39" rx="19.5" fill="#1F1F1F"/>
<g clip-path="url(#clip0_1_19)">
<path d="M18.766 13.0313C18.3435 12.3701 17.7613 11.826 17.073 11.4491C16.3848 11.0723 15.6128 10.8748 14.8281 10.875C14.4791 11.4784 14.2698 12.1524 14.2155 12.8474C14.1612 13.5424 14.2634 14.2407 14.5146 14.891C14.0229 15.6151 13.7568 16.4686 13.75 17.3438V18.0625C13.75 19.2062 14.2044 20.3031 15.0131 21.1119C15.8219 21.9206 16.9188 22.375 18.0625 22.375H22.375C23.5187 22.375 24.6156 21.9206 25.4244 21.1119C26.2331 20.3031 26.6875 19.2062 26.6875 18.0625V17.3438C26.6807 16.4686 26.4146 15.6151 25.9229 14.891C26.1741 14.2407 26.2763 13.5424 26.222 12.8474C26.1677 12.1524 25.9584 11.4784 25.6094 10.875C24.8247 10.8748 24.0527 11.0723 23.3645 11.4491C22.6762 11.826 22.094 12.3701 21.6715 13.0313H18.766Z" stroke="#9FC131" stroke-width="2" stroke-linecap="round" stroke-linejoin="round"/>
<path d="M17.3438 28.8438V25.25C17.3438 24.4875 17.6467 23.7562 18.1858 23.2171C18.725 22.6779 19.4563 22.375 20.2188 22.375C20.9812 22.375 21.7125 22.6779 22.2517 23.2171C22.7908 23.7562 23.0938 24.4875 23.0938 25.25V28.8438" stroke="#9FC131" stroke-width="2" stroke-linecap="round" stroke-linejoin="round"/>
<path d="M17.3438 26.6875H14.4688C13.7063 26.6875 12.975 26.3846 12.4358 25.8454C11.8967 25.3063 11.5938 24.575 11.5938 23.8125C11.5938 23.05 11.2908 22.3187 10.7517 21.7796C10.2125 21.2404 9.48125 20.9375 8.71875 20.9375" stroke="#9FC131" stroke-width="2" stroke-linecap="round" stroke-linejoin="round"/>
</g>
<defs>
<clipPath id="clip0_1_19">
<rect width="23" height="23" fill="white" transform="translate(8 8)"/>
</clipPath>
</defs>
</svg>
