<svg width="80" height="80" viewBox="0 0 80 80" fill="none" xmlns="http://www.w3.org/2000/svg">
<g clip-path="url(#clip0_120_70)">
<path d="M80 0H0V80H80V0Z" fill="#F7DF1E"/>
<path d="M53.7397 62.5003C55.3511 65.1314 57.4476 67.0654 61.1556 67.0654C64.2705 67.0654 66.2603 65.5085 66.2603 63.3574C66.2603 60.7797 64.2159 59.8666 60.7873 58.367L58.9079 57.5606C53.4832 55.2495 49.8794 52.3543 49.8794 46.2336C49.8794 40.5955 54.1752 36.3035 60.8889 36.3035C65.6686 36.3035 69.1048 37.967 71.581 42.3225L65.727 46.0812C64.4381 43.7701 63.0476 42.8597 60.8889 42.8597C58.687 42.8597 57.2914 44.2565 57.2914 46.0812C57.2914 48.3365 58.6883 49.2495 61.9137 50.6463L63.793 51.4514C70.1803 54.1904 73.7867 56.9828 73.7867 63.2609C73.7867 70.0292 68.4698 73.7371 61.3295 73.7371C54.3479 73.7371 49.8375 70.4101 47.6305 66.0495L53.7397 62.5003ZM27.1835 63.1517C28.3644 65.247 29.4387 67.0184 32.0216 67.0184C34.4914 67.0184 36.0495 66.052 36.0495 62.2946V36.7327H43.567V62.3962C43.567 70.1803 39.0032 73.7231 32.3416 73.7231C26.3225 73.7231 22.8368 70.6082 21.0641 66.8565L27.1835 63.1517Z" fill="black"/>
</g>
<defs>
<clipPath id="clip0_120_70">
<rect width="80" height="80" fill="white"/>
</clipPath>
</defs>
</svg>
