<svg width="38" height="38" viewBox="0 0 38 38" fill="none" xmlns="http://www.w3.org/2000/svg">
<rect width="38" height="38" rx="19" fill="#1F1F1F"/>
<path d="M12.8879 10.5C12.64 10.4997 12.3946 10.5522 12.1656 10.6546C11.9365 10.757 11.7284 10.9072 11.5531 11.0967C11.3777 11.2861 11.2386 11.5111 11.1437 11.7587C11.0488 12.0064 11 12.2718 11 12.5399C11 13.668 11.845 14.603 12.8857 14.603C13.9279 14.603 14.7736 13.668 14.7736 12.5415C14.7738 12.2734 14.7251 12.008 14.6304 11.7603C14.5358 11.5127 14.3969 11.2876 14.2218 11.098C14.0466 10.9084 13.8387 10.758 13.6098 10.6554C13.3809 10.5528 13.1356 10.5 12.8879 10.5ZM22.0964 15.9088C20.5114 15.9088 19.605 16.8052 19.1693 17.6968H19.1236C19.1236 17.6968 19.1236 16.7895 19.1236 16.1491C19.1236 15.5088 18.2373 15.2493 17.5357 15.2596C16.852 15.2697 16.2874 15.7688 16.1981 16.1484C16.1088 16.5279 16.1228 26.0645 16.1228 26.5745C16.1228 27.0845 16.8282 27.5235 17.6275 27.4992C18.3487 27.4773 19.255 26.7657 19.255 26.5745C19.255 26.3833 19.255 21.881 19.255 21.881C19.255 20.4005 19.3579 18.9695 21.0514 18.9695C22.7207 18.9695 22.745 20.6578 22.745 21.9745C22.745 21.9745 22.745 25.8812 22.745 26.4789C22.745 27.0765 23.6337 27.4992 24.3725 27.4992C25.1113 27.4992 26 26.9888 26 26.4789C26 25.9689 26 21.2651 26 21.2651C26 18.2145 25.3936 15.9088 22.0964 15.9088ZM11.4821 16.2796C11.4853 16.5192 11.415 26.3194 11.4821 26.4791C11.6964 26.9888 12.2686 27.3144 12.9286 27.3292C13.6392 27.3451 14.6429 26.7156 14.6429 26.4791C14.6429 26.2425 14.5859 16.3879 14.5164 16.1484C14.447 15.9088 13.645 15.2589 12.9286 15.2597C12.2137 15.2605 11.4789 16.0401 11.4821 16.2796Z" fill="#9FC131"/>
</svg>
