<svg width="151" height="151" viewBox="0 0 151 151" fill="none" xmlns="http://www.w3.org/2000/svg">
<circle cx="75.3756" cy="75.3757" r="43.3618" fill="url(#paint0_linear_1456_36)" stroke="url(#paint1_linear_1456_36)" stroke-width="3"/>
<path d="M120.08 43.5242C126.773 52.9188 130.337 64.1833 130.265 75.7184C130.193 87.2534 126.489 98.4726 119.678 107.783" stroke="url(#paint2_linear_1456_36)" stroke-width="3"/>
<circle cx="119.993" cy="41.7895" r="4.26062" transform="rotate(24.624 119.993 41.7895)" fill="#85A229"/>
<path d="M107.71 119.732C98.3883 126.527 87.163 130.213 75.6278 130.266C64.0927 130.319 52.834 126.736 43.4505 120.027" stroke="url(#paint3_linear_1456_36)" stroke-width="3"/>
<circle cx="109.443" cy="119.627" r="4.26062" transform="rotate(114.003 109.443 119.627)" fill="#85A229"/>
<path d="M29.9526 106.193C23.4763 96.6473 20.1719 85.304 20.5085 73.7736C20.8452 62.2432 24.8059 51.112 31.8281 41.9604" stroke="url(#paint4_linear_1456_36)" stroke-width="3"/>
<circle cx="29.999" cy="107.929" r="4.26062" transform="rotate(-154.061 29.999 107.929)" fill="#85A229"/>
<path d="M44.2872 30.1377C53.794 23.6044 65.1174 20.2322 76.6495 20.4999C88.1817 20.7676 99.3365 24.6616 108.53 31.629" stroke="url(#paint5_linear_1456_36)" stroke-width="3"/>
<circle cx="42.5513" cy="30.1945" r="4.26062" transform="rotate(-64.4039 42.5513 30.1945)" fill="#85A229"/>
<circle cx="75.2212" cy="63.6129" r="14.6129" fill="#9FC131"/>
<path d="M108.508 104.654C108.508 104.654 108.796 100.669 106.524 96.6547C104.252 92.6404 100.837 89.1333 96.5802 86.4439C92.3235 83.7545 87.3572 81.9659 82.1209 81.2364C76.8847 80.507 71.5403 80.8592 66.5611 82.262C61.5818 83.6647 57.1215 86.0747 53.5751 89.2783C50.0287 92.482 47.4598 97.2896 46.2297 100.629C46.2297 100.629 44.6695 103.891 44.6697 104.443C44.6699 104.994 51.1851 111.21 58.9553 114.468C66.7256 117.726 73.7429 118.377 80.2584 117.726C86.774 117.074 89.031 115.971 89.031 115.971C89.031 115.971 92.7903 114.718 95.7972 112.964C98.804 111.21 108.508 104.654 108.508 104.654Z" fill="#9FC131"/>
<path d="M69.1837 74.3831C66.4865 70.1434 82.6693 69.758 80.8712 74.3831C79.0732 79.0082 80.8712 85.9458 80.8712 85.9458H69.1837C69.1837 85.9458 71.8809 78.6227 69.1837 74.3831Z" fill="#9FC131"/>
<circle cx="114.473" cy="110.463" r="18.7981" fill="url(#paint6_linear_1456_36)" stroke="url(#paint7_linear_1456_36)"/>
<path d="M114.724 119.736C114.724 119.736 105.701 114.633 105.701 108.618C105.701 107.312 106.195 106.061 107.073 105.138C107.952 104.215 109.143 103.696 110.386 103.696C112.346 103.696 114.024 104.818 114.724 106.613C115.423 104.818 117.102 103.696 119.061 103.696C120.304 103.696 121.495 104.215 122.374 105.138C123.253 106.061 123.746 107.312 123.746 108.618C123.746 114.633 114.724 119.736 114.724 119.736Z" fill="#C9D5A0" stroke="#C9D5A0" stroke-width="2" stroke-linecap="round" stroke-linejoin="round"/>
<defs>
<linearGradient id="paint0_linear_1456_36" x1="98.9343" y1="41.2907" x2="34.2732" y2="120.237" gradientUnits="userSpaceOnUse">
<stop stop-color="#9FC131"/>
<stop offset="1" stop-color="#4B5B17"/>
</linearGradient>
<linearGradient id="paint1_linear_1456_36" x1="114" y1="23.5" x2="37.5" y2="111.5" gradientUnits="userSpaceOnUse">
<stop stop-color="#9BBC30"/>
<stop offset="0.971804" stop-color="#6B8221"/>
</linearGradient>
<linearGradient id="paint2_linear_1456_36" x1="117.782" y1="32.7806" x2="116.908" y2="112.883" gradientUnits="userSpaceOnUse">
<stop stop-color="#9FC131"/>
<stop offset="1" stop-color="#1F1F1F"/>
</linearGradient>
<linearGradient id="paint3_linear_1456_36" x1="118.428" y1="117.318" x2="38.3205" y2="117.312" gradientUnits="userSpaceOnUse">
<stop stop-color="#9FC131"/>
<stop offset="1" stop-color="#1F1F1F"/>
</linearGradient>
<linearGradient id="paint4_linear_1456_36" x1="32.0035" y1="116.987" x2="34.7153" y2="36.9251" gradientUnits="userSpaceOnUse">
<stop stop-color="#9FC131"/>
<stop offset="1" stop-color="#1F1F1F"/>
</linearGradient>
<linearGradient id="paint5_linear_1456_36" x1="33.5061" y1="32.2532" x2="113.582" y2="34.4861" gradientUnits="userSpaceOnUse">
<stop stop-color="#9FC131"/>
<stop offset="1" stop-color="#1F1F1F"/>
</linearGradient>
<linearGradient id="paint6_linear_1456_36" x1="137" y1="130" x2="100" y2="97" gradientUnits="userSpaceOnUse">
<stop stop-color="#9FC131"/>
<stop offset="1" stop-color="#4B5B17"/>
</linearGradient>
<linearGradient id="paint7_linear_1456_36" x1="127.004" y1="125.25" x2="97.9318" y2="94.9244" gradientUnits="userSpaceOnUse">
<stop stop-color="#9FC131"/>
<stop offset="1" stop-color="#4B5B17"/>
</linearGradient>
</defs>
</svg>
