<svg width="60" height="60" viewBox="0 0 60 60" fill="none" xmlns="http://www.w3.org/2000/svg">
<rect width="60" height="60" rx="30" fill="#1F1F1F"/>
<g clip-path="url(#clip0_284_22)">
<path d="M23 26C23 24.9391 23.4214 23.9217 24.1716 23.1716C24.9217 22.4214 25.9391 22 27 22L29 26L27.46 28.3088C28.0709 29.7684 29.2316 30.9291 30.6912 31.54L33 30L37 32C37 33.0609 36.5786 34.0783 35.8284 34.8284C35.0783 35.5786 34.0609 36 33 36C30.3478 36 27.8043 34.9464 25.9289 33.0711C24.0536 31.1957 23 28.6522 23 26Z" stroke="#9FC131" stroke-width="2" stroke-linecap="round" stroke-linejoin="round"/>
<path d="M23.9901 39.386C26.5108 40.8448 29.476 41.3372 32.3328 40.7713C35.1897 40.2054 37.7433 38.6198 39.5175 36.3102C41.2916 34.0006 42.1653 31.1245 41.9756 28.2183C41.7859 25.3121 40.5457 22.5741 38.4864 20.5147C36.427 18.4554 33.689 17.2152 30.7828 17.0255C27.8766 16.8358 25.0005 17.7095 22.6909 19.4836C20.3813 21.2578 18.7957 23.8114 18.2298 26.6682C17.6639 29.5251 18.1563 32.4903 19.6151 35.011L18.0514 39.6797C17.9926 39.8559 17.9841 40.045 18.0267 40.2258C18.0694 40.4065 18.1616 40.5719 18.2929 40.7032C18.4242 40.8345 18.5895 40.9267 18.7703 40.9694C18.9511 41.012 19.1402 41.0035 19.3164 40.9447L23.9901 39.386Z" stroke="#9FC131" stroke-width="2" stroke-linecap="round" stroke-linejoin="round"/>
</g>
<defs>
<clipPath id="clip0_284_22">
<rect width="32" height="32" fill="white" transform="translate(14 14)"/>
</clipPath>
</defs>
</svg>
